<?xml version="1.0" encoding="UTF-8"?>
<!DOCTYPE svg PUBLIC "-//W3C//DTD SVG 1.1//EN" "http://www.w3.org/Graphics/SVG/1.1/DTD/svg11.dtd">
<svg xmlns="http://www.w3.org/2000/svg" version="1.1" width="128px" height="128px" style="shape-rendering:geometricPrecision; text-rendering:geometricPrecision; image-rendering:optimizeQuality; fill-rule:evenodd; clip-rule:evenodd" xmlns:xlink="http://www.w3.org/1999/xlink">
<g><path style="opacity:0.997" fill="#83ffae" d="M 122.5,103.5 C 120.914,107.577 117.914,110.077 113.5,111C 79.5,111.667 45.5,111.667 11.5,111C 8.25432,109.258 5.92098,106.758 4.5,103.5C 4.33336,76.4979 4.50003,49.4979 5,22.5C 5.78597,19.4173 7.61931,17.2506 10.5,16C 45.8333,15.3333 81.1667,15.3333 116.5,16C 119.381,17.2506 121.214,19.4173 122,22.5C 122.5,49.4979 122.667,76.4979 122.5,103.5 Z"/></g>
<g><path style="opacity:1" fill="#14fe66" d="M 111.5,68.5 C 103.535,61.0358 95.7017,53.3691 88,45.5C 77.909,55.0871 68.409,65.0871 59.5,75.5C 56.1667,72.8333 53.1667,69.8333 50.5,66.5C 54.6567,64.5647 57.1567,61.2314 58,56.5C 58.2428,40.0088 50.0762,32.8421 33.5,35C 20.9814,41.5108 17.8148,51.0108 24,63.5C 26.0865,66.0939 28.5865,68.0939 31.5,69.5C 26.5,75.1667 21.1667,80.5 15.5,85.5C 15.5,65.8333 15.5,46.1667 15.5,26.5C 47.5,26.5 79.5,26.5 111.5,26.5C 111.5,40.5 111.5,54.5 111.5,68.5 Z"/></g>
<g><path style="opacity:1" fill="#2cfe75" d="M 50.5,66.5 C 47.853,64.1891 45.1864,61.8558 42.5,59.5C 38.8133,62.8554 35.1466,66.1887 31.5,69.5C 28.5865,68.0939 26.0865,66.0939 24,63.5C 17.8148,51.0108 20.9814,41.5108 33.5,35C 50.0762,32.8421 58.2428,40.0088 58,56.5C 57.1567,61.2314 54.6567,64.5647 50.5,66.5 Z"/></g>
<g><path style="opacity:1" fill="#03fe5a" d="M 111.5,68.5 C 111.5,79.1667 111.5,89.8333 111.5,100.5C 102.083,100.805 92.75,100.472 83.5,99.5C 75.1667,91.8333 67.1667,83.8333 59.5,75.5C 68.409,65.0871 77.909,55.0871 88,45.5C 95.7017,53.3691 103.535,61.0358 111.5,68.5 Z"/></g>
<g><path style="opacity:1" fill="#00c444" d="M 50.5,66.5 C 53.1667,69.8333 56.1667,72.8333 59.5,75.5C 67.1667,83.8333 75.1667,91.8333 83.5,99.5C 61.0061,100.497 38.3395,100.831 15.5,100.5C 15.5,95.5 15.5,90.5 15.5,85.5C 21.1667,80.5 26.5,75.1667 31.5,69.5C 35.1466,66.1887 38.8133,62.8554 42.5,59.5C 45.1864,61.8558 47.853,64.1891 50.5,66.5 Z"/></g>
<g><path style="opacity:1" fill="#27fe6f" d="M 83.5,99.5 C 92.75,100.472 102.083,100.805 111.5,100.5C 79.5,101.833 47.5,101.833 15.5,100.5C 38.3395,100.831 61.0061,100.497 83.5,99.5 Z"/></g>
<g><path style="opacity:0.987" fill="#41ff83" d="M 4.5,103.5 C 5.92098,106.758 8.25432,109.258 11.5,111C 45.5,111.667 79.5,111.667 113.5,111C 117.914,110.077 120.914,107.577 122.5,103.5C 123.552,110.231 120.886,114.731 114.5,117C 80.5,117.667 46.5,117.667 12.5,117C 6.11423,114.731 3.44756,110.231 4.5,103.5 Z"/></g>
</svg>
