<?xml version="1.0" encoding="UTF-8"?>
<!DOCTYPE svg PUBLIC "-//W3C//DTD SVG 1.1//EN" "http://www.w3.org/Graphics/SVG/1.1/DTD/svg11.dtd">
<svg xmlns="http://www.w3.org/2000/svg" version="1.1" width="128px" height="128px" style="shape-rendering:geometricPrecision; text-rendering:geometricPrecision; image-rendering:optimizeQuality; fill-rule:evenodd; clip-rule:evenodd" xmlns:xlink="http://www.w3.org/1999/xlink">
<g><path style="opacity:0.925" fill="#000000" d="M 15.5,15.5 C 15.5,18.1667 15.5,20.8333 15.5,23.5C 12.8333,23.5 10.1667,23.5 7.5,23.5C 7.5,52.8333 7.5,82.1667 7.5,111.5C 7.5,112.167 7.5,112.833 7.5,113.5C 6.21009,112.942 5.37675,111.942 5,110.5C 4.33333,81.1667 4.33333,51.8333 5,22.5C 6.58093,17.2926 10.0809,14.9593 15.5,15.5 Z"/></g>
<g><path style="opacity:0.997" fill="#bcc3c6" d="M 15.5,15.5 C 49.1683,15.3333 82.835,15.5 116.5,16C 117.942,16.3768 118.942,17.2101 119.5,18.5C 119.5,20.1667 119.5,21.8333 119.5,23.5C 120.5,23.5 121.5,23.5 122.5,23.5C 122.825,52.9071 122.491,82.2404 121.5,111.5C 83.5,111.5 45.5,111.5 7.5,111.5C 7.5,82.1667 7.5,52.8333 7.5,23.5C 10.1667,23.5 12.8333,23.5 15.5,23.5C 15.5,20.8333 15.5,18.1667 15.5,15.5 Z"/></g>
<g><path style="opacity:0.655" fill="#000000" d="M 119.5,18.5 C 120.737,19.9649 121.737,21.6316 122.5,23.5C 121.5,23.5 120.5,23.5 119.5,23.5C 119.5,21.8333 119.5,20.1667 119.5,18.5 Z"/></g>
<g><path style="opacity:1" fill="#f29b11" d="M 111.5,63.5 C 108.833,63.5 106.167,63.5 103.5,63.5C 103.5,60.8333 103.5,58.1667 103.5,55.5C 100.833,55.5 98.1667,55.5 95.5,55.5C 95.5,52.8333 95.5,50.1667 95.5,47.5C 92.8333,47.5 90.1667,47.5 87.5,47.5C 87.5,50.1667 87.5,52.8333 87.5,55.5C 84.8333,55.5 82.1667,55.5 79.5,55.5C 79.5,58.1667 79.5,60.8333 79.5,63.5C 76.8333,63.5 74.1667,63.5 71.5,63.5C 71.5,66.1667 71.5,68.8333 71.5,71.5C 66.1667,71.5 60.8333,71.5 55.5,71.5C 52.8333,71.5 50.1667,71.5 47.5,71.5C 47.5,68.8333 47.5,66.1667 47.5,63.5C 52.8333,63.5 58.1667,63.5 63.5,63.5C 63.5,58.1667 63.5,52.8333 63.5,47.5C 60.8333,47.5 58.1667,47.5 55.5,47.5C 55.5,44.8333 55.5,42.1667 55.5,39.5C 47.5,39.5 39.5,39.5 31.5,39.5C 31.5,42.1667 31.5,44.8333 31.5,47.5C 28.8333,47.5 26.1667,47.5 23.5,47.5C 23.5,52.8333 23.5,58.1667 23.5,63.5C 26.1667,63.5 28.8333,63.5 31.5,63.5C 31.5,66.1667 31.5,68.8333 31.5,71.5C 31.5,74.1667 31.5,76.8333 31.5,79.5C 28.8333,79.5 26.1667,79.5 23.5,79.5C 23.5,82.1667 23.5,84.8333 23.5,87.5C 20.8333,87.5 18.1667,87.5 15.5,87.5C 15.5,68.8333 15.5,50.1667 15.5,31.5C 47.5,31.5 79.5,31.5 111.5,31.5C 111.5,42.1667 111.5,52.8333 111.5,63.5 Z"/></g>
<g><path style="opacity:1" fill="#f0c40e" d="M 47.5,63.5 C 44.8333,63.5 42.1667,63.5 39.5,63.5C 39.5,66.1667 39.5,68.8333 39.5,71.5C 36.8333,71.5 34.1667,71.5 31.5,71.5C 31.5,68.8333 31.5,66.1667 31.5,63.5C 28.8333,63.5 26.1667,63.5 23.5,63.5C 23.5,58.1667 23.5,52.8333 23.5,47.5C 26.1667,47.5 28.8333,47.5 31.5,47.5C 31.5,44.8333 31.5,42.1667 31.5,39.5C 39.5,39.5 47.5,39.5 55.5,39.5C 55.5,42.1667 55.5,44.8333 55.5,47.5C 58.1667,47.5 60.8333,47.5 63.5,47.5C 63.5,52.8333 63.5,58.1667 63.5,63.5C 58.1667,63.5 52.8333,63.5 47.5,63.5 Z"/></g>
<g><path style="opacity:1" fill="#e57d21" d="M 111.5,63.5 C 111.5,76.8333 111.5,90.1667 111.5,103.5C 103.5,103.5 95.5,103.5 87.5,103.5C 87.5,100.833 87.5,98.1667 87.5,95.5C 84.8333,95.5 82.1667,95.5 79.5,95.5C 79.5,92.8333 79.5,90.1667 79.5,87.5C 76.8333,87.5 74.1667,87.5 71.5,87.5C 71.5,84.8333 71.5,82.1667 71.5,79.5C 66.1667,79.5 60.8333,79.5 55.5,79.5C 55.5,76.8333 55.5,74.1667 55.5,71.5C 60.8333,71.5 66.1667,71.5 71.5,71.5C 71.5,68.8333 71.5,66.1667 71.5,63.5C 74.1667,63.5 76.8333,63.5 79.5,63.5C 79.5,60.8333 79.5,58.1667 79.5,55.5C 82.1667,55.5 84.8333,55.5 87.5,55.5C 87.5,52.8333 87.5,50.1667 87.5,47.5C 90.1667,47.5 92.8333,47.5 95.5,47.5C 95.5,50.1667 95.5,52.8333 95.5,55.5C 98.1667,55.5 100.833,55.5 103.5,55.5C 103.5,58.1667 103.5,60.8333 103.5,63.5C 106.167,63.5 108.833,63.5 111.5,63.5 Z"/></g>
<g><path style="opacity:1" fill="#d35601" d="M 47.5,63.5 C 47.5,66.1667 47.5,68.8333 47.5,71.5C 50.1667,71.5 52.8333,71.5 55.5,71.5C 55.5,74.1667 55.5,76.8333 55.5,79.5C 60.8333,79.5 66.1667,79.5 71.5,79.5C 71.5,82.1667 71.5,84.8333 71.5,87.5C 74.1667,87.5 76.8333,87.5 79.5,87.5C 79.5,90.1667 79.5,92.8333 79.5,95.5C 82.1667,95.5 84.8333,95.5 87.5,95.5C 87.5,98.1667 87.5,100.833 87.5,103.5C 63.5,103.5 39.5,103.5 15.5,103.5C 15.5,98.1667 15.5,92.8333 15.5,87.5C 18.1667,87.5 20.8333,87.5 23.5,87.5C 23.5,84.8333 23.5,82.1667 23.5,79.5C 26.1667,79.5 28.8333,79.5 31.5,79.5C 31.5,76.8333 31.5,74.1667 31.5,71.5C 34.1667,71.5 36.8333,71.5 39.5,71.5C 39.5,68.8333 39.5,66.1667 39.5,63.5C 42.1667,63.5 44.8333,63.5 47.5,63.5 Z"/></g>
<g><path style="opacity:0.99" fill="#95a4a5" d="M 7.5,111.5 C 45.5,111.5 83.5,111.5 121.5,111.5C 119.929,114.231 117.595,116.065 114.5,117C 80.5,117.667 46.5,117.667 12.5,117C 10.4156,116.303 8.74894,115.136 7.5,113.5C 7.5,112.833 7.5,112.167 7.5,111.5 Z"/></g>
</svg>
