<?xml version="1.0" encoding="UTF-8"?>
<!DOCTYPE svg PUBLIC "-//W3C//DTD SVG 1.1//EN" "http://www.w3.org/Graphics/SVG/1.1/DTD/svg11.dtd">
<svg xmlns="http://www.w3.org/2000/svg" version="1.1" width="128px" height="128px" style="shape-rendering:geometricPrecision; text-rendering:geometricPrecision; image-rendering:optimizeQuality; fill-rule:evenodd; clip-rule:evenodd" xmlns:xlink="http://www.w3.org/1999/xlink">
<g><path style="opacity:0.998" fill="#fee8b5" d="M 122.5,103.5 C 121.017,107.147 118.35,109.647 114.5,111C 80.1667,111.667 45.8333,111.667 11.5,111C 8.25432,109.258 5.92098,106.758 4.5,103.5C 4.33336,76.4979 4.50003,49.4979 5,22.5C 5.78597,19.4173 7.61931,17.2506 10.5,16C 45.8333,15.3333 81.1667,15.3333 116.5,16C 119.381,17.2506 121.214,19.4173 122,22.5C 122.5,49.4979 122.667,76.4979 122.5,103.5 Z"/></g>
<g><path style="opacity:1" fill="#dac297" d="M 111.5,68.5 C 103.535,61.0358 95.7017,53.3691 88,45.5C 78.2984,55.3689 68.4651,65.0355 58.5,74.5C 56.1395,71.4728 53.4729,68.8062 50.5,66.5C 54.6567,64.5647 57.1567,61.2314 58,56.5C 58.2137,39.9991 50.0471,32.8324 33.5,35C 21.0545,41.3937 17.8878,50.8937 24,63.5C 26.0865,66.0939 28.5865,68.0939 31.5,69.5C 26.5,75.1667 21.1667,80.5 15.5,85.5C 15.5,65.8333 15.5,46.1667 15.5,26.5C 47.5,26.5 79.5,26.5 111.5,26.5C 111.5,40.5 111.5,54.5 111.5,68.5 Z"/></g>
<g><path style="opacity:1" fill="#f7dcab" d="M 50.5,66.5 C 48.4865,63.6534 45.9865,61.3201 43,59.5C 39.0107,62.6561 35.1774,65.9894 31.5,69.5C 28.5865,68.0939 26.0865,66.0939 24,63.5C 17.8878,50.8937 21.0545,41.3937 33.5,35C 50.0471,32.8324 58.2137,39.9991 58,56.5C 57.1567,61.2314 54.6567,64.5647 50.5,66.5 Z"/></g>
<g><path style="opacity:1" fill="#c2ac86" d="M 111.5,68.5 C 111.5,79.5 111.5,90.5 111.5,101.5C 79.329,101.832 47.329,101.498 15.5,100.5C 38.5024,100.667 61.5024,100.5 84.5,100C 75.9084,91.2467 67.2417,82.7467 58.5,74.5C 68.4651,65.0355 78.2984,55.3689 88,45.5C 95.7017,53.3691 103.535,61.0358 111.5,68.5 Z"/></g>
<g><path style="opacity:1" fill="#948366" d="M 50.5,66.5 C 53.4729,68.8062 56.1395,71.4728 58.5,74.5C 67.2417,82.7467 75.9084,91.2467 84.5,100C 61.5024,100.5 38.5024,100.667 15.5,100.5C 15.5,95.5 15.5,90.5 15.5,85.5C 21.1667,80.5 26.5,75.1667 31.5,69.5C 35.1774,65.9894 39.0107,62.6561 43,59.5C 45.9865,61.3201 48.4865,63.6534 50.5,66.5 Z"/></g>
<g><path style="opacity:0.896" fill="#d8c096" d="M 4.5,103.5 C 5.92098,106.758 8.25432,109.258 11.5,111C 45.8333,111.667 80.1667,111.667 114.5,111C 118.35,109.647 121.017,107.147 122.5,103.5C 123.552,110.231 120.886,114.731 114.5,117C 80.5,117.667 46.5,117.667 12.5,117C 6.11423,114.731 3.44756,110.231 4.5,103.5 Z"/></g>
</svg>
