<?xml version="1.0" encoding="UTF-8"?>
<!DOCTYPE svg PUBLIC "-//W3C//DTD SVG 1.1//EN" "http://www.w3.org/Graphics/SVG/1.1/DTD/svg11.dtd">
<svg xmlns="http://www.w3.org/2000/svg" version="1.1" width="128px" height="128px" style="shape-rendering:geometricPrecision; text-rendering:geometricPrecision; image-rendering:optimizeQuality; fill-rule:evenodd; clip-rule:evenodd" xmlns:xlink="http://www.w3.org/1999/xlink">
<g><path style="opacity:1" fill="#fbfbfb" d="M -0.5,-0.5 C 6.16667,-0.5 12.8333,-0.5 19.5,-0.5C 16.9196,5.11874 14.253,10.7854 11.5,16.5C 10.8333,16.5 10.5,16.8333 10.5,17.5C 7.54795,18.3589 5.71461,20.3589 5,23.5C 4.50003,47.8311 4.33336,72.1644 4.5,96.5C 4.18503,100.371 4.51836,104.038 5.5,107.5C 6.19542,110.915 7.86209,113.582 10.5,115.5C 11.5819,117.339 12.4153,119.339 13,121.5C 14.1475,120.542 15.1475,120.875 16,122.5C 15.932,124.342 16.0986,126.009 16.5,127.5C 10.8333,127.5 5.16667,127.5 -0.5,127.5C -0.5,84.8333 -0.5,42.1667 -0.5,-0.5 Z"/></g>
<g><path style="opacity:1" fill="#fafafa" d="M 19.5,-0.5 C 48.1667,-0.5 76.8333,-0.5 105.5,-0.5C 103.772,3.4019 102.272,7.4019 101,11.5C 97.6676,13.4429 97.8342,14.6095 101.5,15C 99.1902,15.4966 96.8568,15.6633 94.5,15.5C 72.8333,15.5 51.1667,15.5 29.5,15.5C 23.4406,15.2539 17.4406,15.5872 11.5,16.5C 14.253,10.7854 16.9196,5.11874 19.5,-0.5 Z"/></g>
<g><path style="opacity:1" fill="#fafafa" d="M 108.5,-0.5 C 114.833,-0.5 121.167,-0.5 127.5,-0.5C 127.5,42.1667 127.5,84.8333 127.5,127.5C 121.5,127.5 115.5,127.5 109.5,127.5C 109.351,126.448 109.517,125.448 110,124.5C 112.41,121.603 114.577,118.603 116.5,115.5C 117.89,114.101 118.89,112.434 119.5,110.5C 120.79,109.942 121.623,108.942 122,107.5C 122.498,104.518 122.665,101.518 122.5,98.5C 122.5,97.1667 122.5,95.8333 122.5,94.5C 122.831,70.6608 122.498,46.9941 121.5,23.5C 120.087,20.5809 118.087,18.0809 115.5,16C 111.167,15.6667 106.833,15.3333 102.5,15C 103.308,14.6924 103.975,14.1924 104.5,13.5C 103.833,13.1667 103.167,12.8333 102.5,12.5C 103.711,10.5781 105.044,8.74477 106.5,7C 106.043,6.58605 105.709,6.08605 105.5,5.5C 106.559,3.46641 107.559,1.46641 108.5,-0.5 Z"/></g>
<g><path style="opacity:1" fill="#c7cccf" d="M 29.5,15.5 C 51.1667,15.5 72.8333,15.5 94.5,15.5C 93.469,16.2485 92.3024,16.9152 91,17.5C 87.2564,16.374 83.423,16.2073 79.5,17C 78.8333,17.6667 78.1667,18.3333 77.5,19C 78.7376,18.9227 79.7376,19.0894 80.5,19.5C 79.4078,20.8309 78.0745,21.6643 76.5,22C 77.8333,22.6667 77.8333,23.3333 76.5,24C 73.3054,24.1805 70.3054,24.6805 67.5,25.5C 58.8333,25.5 50.1667,25.5 41.5,25.5C 40.5707,24.6851 39.5707,23.8518 38.5,23C 39.083,21.3813 39.083,19.548 38.5,17.5C 35.3583,16.8326 32.3583,16.166 29.5,15.5 Z"/></g>
<g><path style="opacity:1" fill="#b7bcbf" d="M 105.5,-0.5 C 106.5,-0.5 107.5,-0.5 108.5,-0.5C 107.559,1.46641 106.559,3.46641 105.5,5.5C 105.709,6.08605 106.043,6.58605 106.5,7C 105.044,8.74477 103.711,10.5781 102.5,12.5C 103.167,12.8333 103.833,13.1667 104.5,13.5C 103.975,14.1924 103.308,14.6924 102.5,15C 106.833,15.3333 111.167,15.6667 115.5,16C 118.087,18.0809 120.087,20.5809 121.5,23.5C 121.666,33.8387 121.5,44.172 121,54.5C 120.767,56.7801 119.934,58.7801 118.5,60.5C 119.167,60.8333 119.833,61.1667 120.5,61.5C 119.5,62.5 118.5,63.5 117.5,64.5C 117.704,63.4706 117.204,62.4706 116,61.5C 115.667,61.8333 115.333,62.1667 115,62.5C 114.292,61.6195 113.458,60.9528 112.5,60.5C 112.562,56.6631 113.562,53.1631 115.5,50C 114.427,48.7496 114.427,47.4162 115.5,46C 115.056,44.2382 114.556,44.4049 114,46.5C 113.202,43.2893 113.702,40.2893 115.5,37.5C 114.975,36.8076 114.308,36.3076 113.5,36C 114.756,35.5831 115.423,34.7498 115.5,33.5C 117.363,32.0328 118.696,30.0328 119.5,27.5C 118.674,26.549 118.508,25.549 119,24.5C 119.654,25.6956 120.154,25.6956 120.5,24.5C 120,23.5 119.5,22.5 119,21.5C 116.692,20.3589 114.859,18.6922 113.5,16.5C 113.165,18.0026 113.165,19.336 113.5,20.5C 112.5,19.1667 111.5,19.1667 110.5,20.5C 106.864,18.7931 106.864,17.6264 110.5,17C 107.854,16.5026 105.187,16.3359 102.5,16.5C 100.86,18.8925 100.193,21.3925 100.5,24C 89.5244,25.0655 78.5244,25.5655 67.5,25.5C 70.3054,24.6805 73.3054,24.1805 76.5,24C 77.8333,23.3333 77.8333,22.6667 76.5,22C 78.0745,21.6643 79.4078,20.8309 80.5,19.5C 79.7376,19.0894 78.7376,18.9227 77.5,19C 78.1667,18.3333 78.8333,17.6667 79.5,17C 83.423,16.2073 87.2564,16.374 91,17.5C 92.3024,16.9152 93.469,16.2485 94.5,15.5C 96.8568,15.6633 99.1902,15.4966 101.5,15C 97.8342,14.6095 97.6676,13.4429 101,11.5C 102.272,7.4019 103.772,3.4019 105.5,-0.5 Z"/></g>
<g><path style="opacity:1" fill="#b7bbbf" d="M 29.5,15.5 C 32.3583,16.166 35.3583,16.8326 38.5,17.5C 39.083,19.548 39.083,21.3813 38.5,23C 39.5707,23.8518 40.5707,24.6851 41.5,25.5C 32.6506,25.1736 23.9839,25.507 15.5,26.5C 15.5,35.1667 15.5,43.8333 15.5,52.5C 15.5,54.5 15.5,56.5 15.5,58.5C 15.5,60.5 15.5,62.5 15.5,64.5C 14.5028,64.5299 13.8361,64.0299 13.5,63C 14.9244,58.3946 14.5911,53.8946 12.5,49.5C 13.3763,47.057 14.0429,44.557 14.5,42C 13.7974,38.9618 13.1308,36.2951 12.5,34C 13.3881,32.7803 14.0548,31.4469 14.5,30C 13.6074,26.9098 12.9407,24.0765 12.5,21.5C 11.9984,20.479 11.3317,20.3123 10.5,21C 10.6192,22.2812 10.1192,23.4479 9,24.5C 8.16681,21.829 8.66681,19.4957 10.5,17.5C 10.5,16.8333 10.8333,16.5 11.5,16.5C 17.4406,15.5872 23.4406,15.2539 29.5,15.5 Z"/></g>
<g><path style="opacity:1" fill="#a6abae" d="M 102.5,16.5 C 105.187,16.3359 107.854,16.5026 110.5,17C 106.864,17.6264 106.864,18.7931 110.5,20.5C 111.5,19.1667 112.5,19.1667 113.5,20.5C 113.165,19.336 113.165,18.0026 113.5,16.5C 114.859,18.6922 116.692,20.3589 119,21.5C 119.5,22.5 120,23.5 120.5,24.5C 120.154,25.6956 119.654,25.6956 119,24.5C 118.508,25.549 118.674,26.549 119.5,27.5C 118.696,30.0328 117.363,32.0328 115.5,33.5C 114.603,34.5981 113.77,34.5981 113,33.5C 112.802,31.6183 112.302,29.9516 111.5,28.5C 111.5,27.8333 111.5,27.1667 111.5,26.5C 111.389,25.8826 111.056,25.3826 110.5,25C 107.774,24.8184 105.107,24.3184 102.5,23.5C 102.838,21.3448 102.838,19.0115 102.5,16.5 Z"/></g>
<g><path style="opacity:1" fill="#928d87" d="M 102.5,16.5 C 102.838,19.0115 102.838,21.3448 102.5,23.5C 105.107,24.3184 107.774,24.8184 110.5,25C 111.056,25.3826 111.389,25.8826 111.5,26.5C 102.167,26.5 92.8333,26.5 83.5,26.5C 60.8333,26.5 38.1667,26.5 15.5,26.5C 23.9839,25.507 32.6506,25.1736 41.5,25.5C 50.1667,25.5 58.8333,25.5 67.5,25.5C 78.5244,25.5655 89.5244,25.0655 100.5,24C 100.193,21.3925 100.86,18.8925 102.5,16.5 Z"/></g>
<g><path style="opacity:1" fill="#a07530" d="M 15.5,26.5 C 38.1667,26.5 60.8333,26.5 83.5,26.5C 83.4142,27.4959 83.7476,28.3292 84.5,29C 83.8333,29.3333 83.1667,29.6667 82.5,30C 83.9733,30.7096 84.6399,31.8762 84.5,33.5C 82.8008,33.3398 81.1341,33.5065 79.5,34C 81.3369,35.4803 83.3369,35.4803 85.5,34C 85.7407,30.9662 87.7407,29.4662 91.5,29.5C 91.6715,31.4918 91.0049,33.1585 89.5,34.5C 90.0253,35.1924 90.6919,35.6924 91.5,36C 90.062,36.2189 88.7287,36.7189 87.5,37.5C 86.3595,38.4255 86.3595,39.2588 87.5,40C 86.2625,40.2321 85.2625,40.7321 84.5,41.5C 82.6916,41.4914 81.0249,41.9914 79.5,43C 79.7408,44.5625 79.2408,46.0625 78,47.5C 77.2825,46.5494 76.4491,46.3828 75.5,47C 73.2368,48.617 71.2368,50.4503 69.5,52.5C 68.9033,52.2648 68.5699,51.7648 68.5,51C 69.7989,49.6736 71.1322,48.3402 72.5,47C 71.8333,46.6667 71.1667,46.3333 70.5,46C 72.3104,42.3298 74.8104,39.1632 78,36.5C 78.7175,37.4506 79.5509,37.6172 80.5,37C 79.2986,36.0975 78.4652,34.9308 78,33.5C 77.6667,33.8333 77.3333,34.1667 77,34.5C 76.3333,33.5 76.3333,32.5 77,31.5C 78.073,32.2797 79.2396,32.113 80.5,31C 79.0696,29.5596 77.403,29.2263 75.5,30C 74.8534,31.6095 74.02,33.1095 73,34.5C 70.5343,30.3371 69.701,30.5038 70.5,35C 67.5369,36.472 65.0369,35.6387 63,32.5C 61.187,33.6091 60.3537,32.9424 60.5,30.5C 57.5071,29.8654 54.5071,29.6987 51.5,30C 52.6399,31.9734 53.9733,33.8067 55.5,35.5C 55.8346,33.9974 55.8346,32.664 55.5,31.5C 57.3841,33.9888 59.3841,35.6555 61.5,36.5C 60.8333,37.1667 60.1667,37.8333 59.5,38.5C 63.2757,44.0203 64.609,50.0203 63.5,56.5C 61.9826,56.5106 60.8159,57.1772 60,58.5C 59.7506,61.1768 58.7506,63.5101 57,65.5C 56.6155,63.8034 56.7822,62.1368 57.5,60.5C 59.9062,56.1146 60.7395,51.4479 60,46.5C 58.7141,52.8758 57.7141,52.5424 57,45.5C 54.988,43.3196 53.1546,40.9863 51.5,38.5C 49.1495,37.1389 46.8162,35.8056 44.5,34.5C 43.4476,32.3449 44.1143,32.0116 46.5,33.5C 47.8333,32.5 47.8333,31.5 46.5,30.5C 43.3864,28.9377 40.553,29.2711 38,31.5C 35.6706,28.2086 33.004,28.2086 30,31.5C 29.3123,32.3317 29.479,32.9984 30.5,33.5C 32.6996,32.5437 33.0329,33.2104 31.5,35.5C 29.8333,36.8333 28.1667,38.1667 26.5,39.5C 26.2289,37.1789 26.8955,35.1789 28.5,33.5C 27.9747,32.8076 27.3081,32.3076 26.5,32C 26.8333,31.6667 27.1667,31.3333 27.5,31C 25.6133,30.8374 24.1133,31.6707 23,33.5C 22.3828,34.4491 22.5494,35.2825 23.5,36C 21.0741,41.3583 18.4074,46.8583 15.5,52.5C 15.5,43.8333 15.5,35.1667 15.5,26.5 Z"/></g>
<g><path style="opacity:1" fill="#cfa35d" d="M 44.5,34.5 C 42.5992,34.5668 40.7659,34.2335 39,33.5C 36.6813,34.8713 34.1813,35.5379 31.5,35.5C 33.0329,33.2104 32.6996,32.5437 30.5,33.5C 29.479,32.9984 29.3123,32.3317 30,31.5C 33.004,28.2086 35.6706,28.2086 38,31.5C 40.553,29.2711 43.3864,28.9377 46.5,30.5C 47.8333,31.5 47.8333,32.5 46.5,33.5C 44.1143,32.0116 43.4476,32.3449 44.5,34.5 Z"/></g>
<g><path style="opacity:1" fill="#909599" d="M 111.5,28.5 C 112.302,29.9516 112.802,31.6183 113,33.5C 113.77,34.5981 114.603,34.5981 115.5,33.5C 115.423,34.7498 114.756,35.5831 113.5,36C 114.308,36.3076 114.975,36.8076 115.5,37.5C 113.702,40.2893 113.202,43.2893 114,46.5C 114.556,44.4049 115.056,44.2382 115.5,46C 114.427,47.4162 114.427,48.7496 115.5,50C 113.562,53.1631 112.562,56.6631 112.5,60.5C 112.5,61.1667 112.167,61.5 111.5,61.5C 111.5,50.5 111.5,39.5 111.5,28.5 Z"/></g>
<g><path style="opacity:1" fill="#8b5e1a" d="M 83.5,26.5 C 92.8333,26.5 102.167,26.5 111.5,26.5C 111.5,27.1667 111.5,27.8333 111.5,28.5C 111.5,39.5 111.5,50.5 111.5,61.5C 111.5,63.5 111.5,65.5 111.5,67.5C 111.5,69.1667 111.5,70.8333 111.5,72.5C 107.194,71.9342 106.861,71.2675 110.5,70.5C 110.594,67.4594 109.094,65.7928 106,65.5C 105.517,64.552 105.351,63.552 105.5,62.5C 107.121,62.2131 108.121,61.2131 108.5,59.5C 105.958,56.3126 103.958,52.8126 102.5,49C 103.34,47.3335 102.84,47.1669 101,48.5C 99.9126,46.2482 98.0792,44.9149 95.5,44.5C 95.7093,43.914 96.0426,43.414 96.5,43C 95.2986,42.0975 94.4652,40.9308 94,39.5C 93.7222,42.7207 92.8889,45.7207 91.5,48.5C 90.0337,47.653 89.2004,46.3197 89,44.5C 86.1213,45.9094 84.4546,48.2427 84,51.5C 83.3292,50.7476 82.4959,50.4142 81.5,50.5C 81.1667,49.8333 80.8333,49.1667 80.5,48.5C 83.1247,47.5423 83.1247,46.3757 80.5,45C 82.6175,44.7398 84.2842,43.7398 85.5,42C 85.2716,41.6012 84.9382,41.4346 84.5,41.5C 85.2625,40.7321 86.2625,40.2321 87.5,40C 86.3595,39.2588 86.3595,38.4255 87.5,37.5C 88.7287,36.7189 90.062,36.2189 91.5,36C 90.6919,35.6924 90.0253,35.1924 89.5,34.5C 91.0049,33.1585 91.6715,31.4918 91.5,29.5C 87.7407,29.4662 85.7407,30.9662 85.5,34C 83.3369,35.4803 81.3369,35.4803 79.5,34C 81.1341,33.5065 82.8008,33.3398 84.5,33.5C 84.6399,31.8762 83.9733,30.7096 82.5,30C 83.1667,29.6667 83.8333,29.3333 84.5,29C 83.7476,28.3292 83.4142,27.4959 83.5,26.5 Z"/></g>
<g><path style="opacity:1" fill="#b68a45" d="M 69.5,52.5 C 67.5096,54.1634 65.843,56.1634 64.5,58.5C 63.7025,58.0431 63.3691,57.3764 63.5,56.5C 64.609,50.0203 63.2757,44.0203 59.5,38.5C 60.1667,37.8333 60.8333,37.1667 61.5,36.5C 59.3841,35.6555 57.3841,33.9888 55.5,31.5C 55.8346,32.664 55.8346,33.9974 55.5,35.5C 53.9733,33.8067 52.6399,31.9734 51.5,30C 54.5071,29.6987 57.5071,29.8654 60.5,30.5C 60.3537,32.9424 61.187,33.6091 63,32.5C 65.0369,35.6387 67.5369,36.472 70.5,35C 69.701,30.5038 70.5343,30.3371 73,34.5C 74.02,33.1095 74.8534,31.6095 75.5,30C 77.403,29.2263 79.0696,29.5596 80.5,31C 79.2396,32.113 78.073,32.2797 77,31.5C 76.3333,32.5 76.3333,33.5 77,34.5C 77.3333,34.1667 77.6667,33.8333 78,33.5C 78.4652,34.9308 79.2986,36.0975 80.5,37C 79.5509,37.6172 78.7175,37.4506 78,36.5C 74.8104,39.1632 72.3104,42.3298 70.5,46C 71.1667,46.3333 71.8333,46.6667 72.5,47C 71.1322,48.3402 69.7989,49.6736 68.5,51C 68.5699,51.7648 68.9033,52.2648 69.5,52.5 Z"/></g>
<g><path style="opacity:1" fill="#865b15" d="M 26.5,39.5 C 23.9683,41.6835 22.3017,44.3502 21.5,47.5C 19.9892,48.9575 18.9892,50.7908 18.5,53C 19.0219,53.5613 19.3552,54.228 19.5,55C 18.5279,57.1113 17.6946,59.2779 17,61.5C 16.7679,60.2625 16.2679,59.2625 15.5,58.5C 15.5,56.5 15.5,54.5 15.5,52.5C 18.4074,46.8583 21.0741,41.3583 23.5,36C 22.5494,35.2825 22.3828,34.4491 23,33.5C 24.1133,31.6707 25.6133,30.8374 27.5,31C 27.1667,31.3333 26.8333,31.6667 26.5,32C 27.3081,32.3076 27.9747,32.8076 28.5,33.5C 26.8955,35.1789 26.2289,37.1789 26.5,39.5 Z"/></g>
<g><path style="opacity:1" fill="#9f722e" d="M 105.5,62.5 C 104.748,60.8997 103.748,59.3997 102.5,58C 102.833,57.6667 103.167,57.3333 103.5,57C 99.2965,55.7724 97.1298,52.9391 97,48.5C 95.8732,51.9069 94.5398,51.5736 93,47.5C 92.6174,48.056 92.1174,48.3893 91.5,48.5C 92.8889,45.7207 93.7222,42.7207 94,39.5C 94.4652,40.9308 95.2986,42.0975 96.5,43C 96.0426,43.414 95.7093,43.914 95.5,44.5C 98.0792,44.9149 99.9126,46.2482 101,48.5C 102.84,47.1669 103.34,47.3335 102.5,49C 103.958,52.8126 105.958,56.3126 108.5,59.5C 108.121,61.2131 107.121,62.2131 105.5,62.5 Z"/></g>
<g><path style="opacity:1" fill="#b0833e" d="M 80.5,48.5 C 80.8333,49.1667 81.1667,49.8333 81.5,50.5C 81.5858,51.4959 81.2524,52.3292 80.5,53C 78.4732,54.8793 76.1398,56.046 73.5,56.5C 74.5515,53.8069 75.5515,51.1402 76.5,48.5C 77.8333,48.5 79.1667,48.5 80.5,48.5 Z"/></g>
<g><path style="opacity:1" fill="#ddb06b" d="M 84.5,41.5 C 84.9382,41.4346 85.2716,41.6012 85.5,42C 84.2842,43.7398 82.6175,44.7398 80.5,45C 83.1247,46.3757 83.1247,47.5423 80.5,48.5C 79.1667,48.5 77.8333,48.5 76.5,48.5C 75.5515,51.1402 74.5515,53.8069 73.5,56.5C 72.0692,59.7009 70.4025,62.7009 68.5,65.5C 66.1878,67.1455 64.1878,69.1455 62.5,71.5C 60.9246,72.4565 59.258,73.1231 57.5,73.5C 54.9473,71.4032 52.614,69.0698 50.5,66.5C 51.5832,66.4606 52.5832,66.1272 53.5,65.5C 54.6125,63.5808 55.9458,61.9142 57.5,60.5C 56.7822,62.1368 56.6155,63.8034 57,65.5C 58.7506,63.5101 59.7506,61.1768 60,58.5C 60.8159,57.1772 61.9826,56.5106 63.5,56.5C 63.3691,57.3764 63.7025,58.0431 64.5,58.5C 65.843,56.1634 67.5096,54.1634 69.5,52.5C 71.2368,50.4503 73.2368,48.617 75.5,47C 76.4491,46.3828 77.2825,46.5494 78,47.5C 79.2408,46.0625 79.7408,44.5625 79.5,43C 81.0249,41.9914 82.6916,41.4914 84.5,41.5 Z"/></g>
<g><path style="opacity:1" fill="#efd87d" d="M 44.5,34.5 C 46.8162,35.8056 49.1495,37.1389 51.5,38.5C 53.1546,40.9863 54.988,43.3196 57,45.5C 57.7141,52.5424 58.7141,52.8758 60,46.5C 60.7395,51.4479 59.9062,56.1146 57.5,60.5C 55.9458,61.9142 54.6125,63.5808 53.5,65.5C 52.5832,66.1272 51.5832,66.4606 50.5,66.5C 50.1667,65.8333 49.8333,65.1667 49.5,64.5C 49.0388,62.4496 48.3721,60.4496 47.5,58.5C 49.4733,56.7186 50.8067,54.5519 51.5,52C 49.9799,49.4039 49.1466,46.5706 49,43.5C 48.586,43.9574 48.086,44.2907 47.5,44.5C 46.3206,40.1919 44.9873,39.8585 43.5,43.5C 42.2404,41.6471 42.2404,39.8138 43.5,38C 43,37.5 42.5,37 42,36.5C 41.5,38.5 41,40.5 40.5,42.5C 41.2357,45.3528 42.2357,48.1861 43.5,51C 42.3559,55.1015 40.6893,58.9348 38.5,62.5C 37.6618,62.8417 37.3284,63.5084 37.5,64.5C 36.1667,65.5 34.8333,66.5 33.5,67.5C 32.2502,67.4226 31.4169,66.756 31,65.5C 29.4506,68.0026 27.7839,68.0026 26,65.5C 22.736,61.4018 21.236,56.7351 21.5,51.5C 21.5,50.1667 21.5,48.8333 21.5,47.5C 22.3017,44.3502 23.9683,41.6835 26.5,39.5C 28.1667,38.1667 29.8333,36.8333 31.5,35.5C 34.1813,35.5379 36.6813,34.8713 39,33.5C 40.7659,34.2335 42.5992,34.5668 44.5,34.5 Z"/></g>
<g><path style="opacity:1" fill="#d0b85f" d="M 49.5,64.5 C 47.4634,62.4704 45.1301,60.8037 42.5,59.5C 41.1482,60.5244 39.8149,61.5244 38.5,62.5C 40.6893,58.9348 42.3559,55.1015 43.5,51C 42.2357,48.1861 41.2357,45.3528 40.5,42.5C 41,40.5 41.5,38.5 42,36.5C 42.5,37 43,37.5 43.5,38C 42.2404,39.8138 42.2404,41.6471 43.5,43.5C 44.9873,39.8585 46.3206,40.1919 47.5,44.5C 48.086,44.2907 48.586,43.9574 49,43.5C 49.1466,46.5706 49.9799,49.4039 51.5,52C 50.8067,54.5519 49.4733,56.7186 47.5,58.5C 48.3721,60.4496 49.0388,62.4496 49.5,64.5 Z"/></g>
<g><path style="opacity:1" fill="#d6a863" d="M 22.5,65.5 C 22.415,67.9288 21.415,69.9288 19.5,71.5C 20.0253,72.1924 20.6919,72.6924 21.5,73C 18.9683,73.6122 18.1349,75.1122 19,77.5C 21.158,74.7095 23.658,72.2095 26.5,70C 23.8792,69.0944 24.0459,68.5944 27,68.5C 28.3756,68.6842 29.2089,69.3509 29.5,70.5C 24.8773,75.492 20.2106,80.492 15.5,85.5C 15.5,82.5 15.5,79.5 15.5,76.5C 16.2679,77.2625 16.7679,78.2625 17,79.5C 17.3392,76.964 17.8392,74.464 18.5,72C 18.0946,71.0546 17.428,70.3879 16.5,70C 17.2897,67.0039 18.4563,64.1705 20,61.5C 20.1216,63.437 20.955,64.7703 22.5,65.5 Z"/></g>
<g><path style="opacity:1" fill="#e8be76" d="M 21.5,51.5 C 21.236,56.7351 22.736,61.4018 26,65.5C 27.7839,68.0026 29.4506,68.0026 31,65.5C 31.4169,66.756 32.2502,67.4226 33.5,67.5C 32.5637,68.9744 31.2303,69.9744 29.5,70.5C 29.2089,69.3509 28.3756,68.6842 27,68.5C 24.0459,68.5944 23.8792,69.0944 26.5,70C 23.658,72.2095 21.158,74.7095 19,77.5C 18.1349,75.1122 18.9683,73.6122 21.5,73C 20.6919,72.6924 20.0253,72.1924 19.5,71.5C 21.415,69.9288 22.415,67.9288 22.5,65.5C 22.9193,62.6755 21.9193,60.5088 19.5,59C 20.1233,56.3927 20.79,53.8927 21.5,51.5 Z"/></g>
<g><path style="opacity:1" fill="#7d4919" d="M 91.5,48.5 C 92.1174,48.3893 92.6174,48.056 93,47.5C 94.5398,51.5736 95.8732,51.9069 97,48.5C 97.1298,52.9391 99.2965,55.7724 103.5,57C 103.167,57.3333 102.833,57.6667 102.5,58C 103.748,59.3997 104.748,60.8997 105.5,62.5C 105.351,63.552 105.517,64.552 106,65.5C 109.094,65.7928 110.594,67.4594 110.5,70.5C 106.861,71.2675 107.194,71.9342 111.5,72.5C 111.5,78.1667 111.5,83.8333 111.5,89.5C 111.5,93.1667 111.5,96.8333 111.5,100.5C 107.833,100.5 104.167,100.5 100.5,100.5C 100.5,99.5 100.5,98.5 100.5,97.5C 102.833,97.5 105.167,97.5 107.5,97.5C 107.949,94.7102 107.949,92.0436 107.5,89.5C 104.734,88.0753 101.901,86.742 99,85.5C 97.3333,86.1667 95.6667,86.8333 94,87.5C 93.5,87.1667 93,86.8333 92.5,86.5C 93.6888,85.5713 95.0222,85.238 96.5,85.5C 96.5,83.8333 96.5,82.1667 96.5,80.5C 99.2627,79.5449 98.2627,79.3782 93.5,80C 95.5951,80.5556 95.7618,81.0556 94,81.5C 91.9991,80.2806 90.1657,78.9472 88.5,77.5C 89.376,76.7492 90.376,76.2492 91.5,76C 90.3346,74.1315 90.668,72.2982 92.5,70.5C 91.8333,70.1667 91.1667,69.8333 90.5,69.5C 89.0445,70.3898 87.7112,70.3898 86.5,69.5C 85.646,70.5217 84.646,71.3551 83.5,72C 84.8333,72.3333 86.1667,72.6667 87.5,73C 86.7069,74.0852 86.0402,75.2519 85.5,76.5C 88.4876,79.1004 88.1542,81.1004 84.5,82.5C 83.5481,80.9547 83.2148,79.288 83.5,77.5C 81.0885,77.1367 79.5885,78.1367 79,80.5C 78.2917,79.6195 77.4584,78.9528 76.5,78.5C 77.5736,77.1154 78.9069,75.9487 80.5,75C 80.1667,73.3333 79.8333,71.6667 79.5,70C 80.8333,69.3333 82.1667,68.6667 83.5,68C 83.0698,67.0805 82.7365,66.2472 82.5,65.5C 80.9291,66.3094 79.2624,66.6427 77.5,66.5C 77.6602,68.1992 77.4935,69.8659 77,71.5C 75.5682,69.0688 74.0682,69.0688 72.5,71.5C 72.1961,70.8501 71.8627,70.1835 71.5,69.5C 73.1392,68.084 73.9725,66.4174 74,64.5C 71,67.5 68,70.5 65,73.5C 65.8189,70.7945 66.9856,68.1278 68.5,65.5C 70.4025,62.7009 72.0692,59.7009 73.5,56.5C 76.1398,56.046 78.4732,54.8793 80.5,53C 81.2524,52.3292 81.5858,51.4959 81.5,50.5C 82.4959,50.4142 83.3292,50.7476 84,51.5C 84.4546,48.2427 86.1213,45.9094 89,44.5C 89.2004,46.3197 90.0337,47.653 91.5,48.5 Z"/></g>
<g><path style="opacity:1" fill="#9c693a" d="M 76.5,78.5 C 74.4284,76.6505 73.0951,74.3171 72.5,71.5C 74.0682,69.0688 75.5682,69.0688 77,71.5C 77.4935,69.8659 77.6602,68.1992 77.5,66.5C 79.2624,66.6427 80.9291,66.3094 82.5,65.5C 82.7365,66.2472 83.0698,67.0805 83.5,68C 82.1667,68.6667 80.8333,69.3333 79.5,70C 79.8333,71.6667 80.1667,73.3333 80.5,75C 78.9069,75.9487 77.5736,77.1154 76.5,78.5 Z"/></g>
<g><path style="opacity:1" fill="#7d3e14" d="M 37.5,64.5 C 36.7829,67.7024 35.1162,70.2024 32.5,72C 32.7804,73.395 33.4471,74.5617 34.5,75.5C 37.2392,72.5357 39.2392,72.8691 40.5,76.5C 40.1822,77.6473 39.5156,78.4806 38.5,79C 38.8333,79.3333 39.1667,79.6667 39.5,80C 38.552,80.4828 37.552,80.6495 36.5,80.5C 36.5,81.5 36.5,82.5 36.5,83.5C 38.2012,83.0338 39.7012,83.0338 41,83.5C 41.677,81.311 42.8437,80.9776 44.5,82.5C 45.2508,81.624 45.7508,80.624 46,79.5C 46.6797,81.513 48.013,82.8464 50,83.5C 52.1113,82.5279 54.2779,81.6946 56.5,81C 55.2283,79.754 54.895,78.5874 55.5,77.5C 56.6477,79.1487 57.981,80.6487 59.5,82C 55.5635,83.506 51.5635,84.6726 47.5,85.5C 48.6405,86.4255 48.6405,87.2588 47.5,88C 48.6226,89.0437 49.9559,89.7104 51.5,90C 50.1667,90.6667 50.1667,91.3333 51.5,92C 49.5,92.6667 47.5,92.6667 45.5,92C 48.0278,91.3311 48.0278,90.4978 45.5,89.5C 44.684,91.2873 43.684,92.9539 42.5,94.5C 41.2612,92.9928 41.5946,91.8261 43.5,91C 42.8333,90 42.1667,89 41.5,88C 42.9603,86.418 44.627,85.0847 46.5,84C 42.8102,83.9201 39.1435,84.4201 35.5,85.5C 35.8333,86.1667 36.1667,86.8333 36.5,87.5C 31.3448,88.4127 29.5115,91.0794 31,95.5C 32.8508,92.9357 34.6841,92.9357 36.5,95.5C 37.8304,93.6531 37.497,92.1531 35.5,91C 36.8491,90.2276 37.6824,89.0609 38,87.5C 39.2074,89.4399 39.374,91.2733 38.5,93C 41.0632,95.5259 40.3966,97.1926 36.5,98C 37.1667,98.3333 37.8333,98.6667 38.5,99C 37.2625,99.2321 36.2625,99.7321 35.5,100.5C 29.5,100.5 23.5,100.5 17.5,100.5C 17.7287,96.7746 18.7287,93.2746 20.5,90C 22.0738,89.3013 23.4071,89.6346 24.5,91C 23.4829,92.0495 23.3162,93.2161 24,94.5C 25.1861,92.3234 27.0194,91.3234 29.5,91.5C 29.7733,89.549 29.1066,88.049 27.5,87C 28.6226,85.9563 29.9559,85.2896 31.5,85C 30.5838,84.6258 29.7504,84.1258 29,83.5C 24.9953,89.2723 22.8286,88.6057 22.5,81.5C 23.8221,81.67 24.9887,81.3366 26,80.5C 25.6667,82.1667 25.3333,83.8333 25,85.5C 26.4196,83.578 28.2529,82.2446 30.5,81.5C 31.2473,78.697 31.414,76.0304 31,73.5C 26.2272,76.951 22.0606,80.951 18.5,85.5C 19.1667,86.1667 19.8333,86.8333 20.5,87.5C 18.8614,88.3219 17.1947,88.9886 15.5,89.5C 15.5,89.1667 15.5,88.8333 15.5,88.5C 15.5,87.5 15.5,86.5 15.5,85.5C 20.2106,80.492 24.8773,75.492 29.5,70.5C 31.2303,69.9744 32.5637,68.9744 33.5,67.5C 34.8333,66.5 36.1667,65.5 37.5,64.5 Z"/></g>
<g><path style="opacity:1" fill="#9a9da0" d="M 111.5,67.5 C 112.649,67.7911 113.316,68.6244 113.5,70C 113.23,71.5143 112.897,73.0143 112.5,74.5C 113.249,76.0356 114.249,77.3689 115.5,78.5C 114.094,82.2324 112.761,85.899 111.5,89.5C 111.5,83.8333 111.5,78.1667 111.5,72.5C 111.5,70.8333 111.5,69.1667 111.5,67.5 Z"/></g>
<g><path style="opacity:1" fill="#d2d3d7" d="M 10.5,17.5 C 8.66681,19.4957 8.16681,21.829 9,24.5C 10.1192,23.4479 10.6192,22.2812 10.5,21C 11.3317,20.3123 11.9984,20.479 12.5,21.5C 12.9407,24.0765 13.6074,26.9098 14.5,30C 14.0548,31.4469 13.3881,32.7803 12.5,34C 13.1308,36.2951 13.7974,38.9618 14.5,42C 14.0429,44.557 13.3763,47.057 12.5,49.5C 14.5911,53.8946 14.9244,58.3946 13.5,63C 13.8361,64.0299 14.5028,64.5299 15.5,64.5C 15.5,68.5 15.5,72.5 15.5,76.5C 15.5,79.5 15.5,82.5 15.5,85.5C 15.5,86.5 15.5,87.5 15.5,88.5C 13.3031,91.9703 11.8031,95.637 11,99.5C 9.244,98.5787 9.07734,97.412 10.5,96C 9.03707,91.7194 8.20374,92.2194 8,97.5C 7.29602,95.273 6.12936,94.9397 4.5,96.5C 4.33336,72.1644 4.50003,47.8311 5,23.5C 5.71461,20.3589 7.54795,18.3589 10.5,17.5 Z"/></g>
<g><path style="opacity:1" fill="#ae803b" d="M 21.5,47.5 C 21.5,48.8333 21.5,50.1667 21.5,51.5C 20.79,53.8927 20.1233,56.3927 19.5,59C 21.9193,60.5088 22.9193,62.6755 22.5,65.5C 20.955,64.7703 20.1216,63.437 20,61.5C 18.4563,64.1705 17.2897,67.0039 16.5,70C 17.428,70.3879 18.0946,71.0546 18.5,72C 17.8392,74.464 17.3392,76.964 17,79.5C 16.7679,78.2625 16.2679,77.2625 15.5,76.5C 15.5,72.5 15.5,68.5 15.5,64.5C 15.5,62.5 15.5,60.5 15.5,58.5C 16.2679,59.2625 16.7679,60.2625 17,61.5C 17.6946,59.2779 18.5279,57.1113 19.5,55C 19.3552,54.228 19.0219,53.5613 18.5,53C 18.9892,50.7908 19.9892,48.9575 21.5,47.5 Z"/></g>
<g><path style="opacity:1" fill="#c99566" d="M 72.5,71.5 C 73.0951,74.3171 74.4284,76.6505 76.5,78.5C 76.4012,82.7268 78.2345,85.7268 82,87.5C 84.2617,91.4548 86.4284,95.4548 88.5,99.5C 86.604,100.466 84.604,100.799 82.5,100.5C 82.6495,99.448 82.4828,98.448 82,97.5C 73.9382,89.2703 65.7715,81.2703 57.5,73.5C 59.258,73.1231 60.9246,72.4565 62.5,71.5C 64.1878,69.1455 66.1878,67.1455 68.5,65.5C 66.9856,68.1278 65.8189,70.7945 65,73.5C 68,70.5 71,67.5 74,64.5C 73.9725,66.4174 73.1392,68.084 71.5,69.5C 71.8627,70.1835 72.1961,70.8501 72.5,71.5 Z"/></g>
<g><path style="opacity:1" fill="#6d2d04" d="M 17.5,100.5 C 16.8333,100.5 16.1667,100.5 15.5,100.5C 15.5,96.8333 15.5,93.1667 15.5,89.5C 17.1947,88.9886 18.8614,88.3219 20.5,87.5C 19.8333,86.8333 19.1667,86.1667 18.5,85.5C 22.0606,80.951 26.2272,76.951 31,73.5C 31.414,76.0304 31.2473,78.697 30.5,81.5C 28.2529,82.2446 26.4196,83.578 25,85.5C 25.3333,83.8333 25.6667,82.1667 26,80.5C 24.9887,81.3366 23.8221,81.67 22.5,81.5C 22.8286,88.6057 24.9953,89.2723 29,83.5C 29.7504,84.1258 30.5838,84.6258 31.5,85C 29.9559,85.2896 28.6226,85.9563 27.5,87C 29.1066,88.049 29.7733,89.549 29.5,91.5C 27.0194,91.3234 25.1861,92.3234 24,94.5C 23.3162,93.2161 23.4829,92.0495 24.5,91C 23.4071,89.6346 22.0738,89.3013 20.5,90C 18.7287,93.2746 17.7287,96.7746 17.5,100.5 Z"/></g>
<g><path style="opacity:1" fill="#c8cacd" d="M 121.5,23.5 C 122.498,46.9941 122.831,70.6608 122.5,94.5C 121.686,92.369 121.186,90.0356 121,87.5C 117.07,91.1717 115.57,95.505 116.5,100.5C 114.833,100.5 113.167,100.5 111.5,100.5C 111.5,96.8333 111.5,93.1667 111.5,89.5C 112.761,85.899 114.094,82.2324 115.5,78.5C 114.249,77.3689 113.249,76.0356 112.5,74.5C 112.897,73.0143 113.23,71.5143 113.5,70C 113.316,68.6244 112.649,67.7911 111.5,67.5C 111.5,65.5 111.5,63.5 111.5,61.5C 112.167,61.5 112.5,61.1667 112.5,60.5C 113.458,60.9528 114.292,61.6195 115,62.5C 115.333,62.1667 115.667,61.8333 116,61.5C 117.204,62.4706 117.704,63.4706 117.5,64.5C 118.5,63.5 119.5,62.5 120.5,61.5C 119.833,61.1667 119.167,60.8333 118.5,60.5C 119.934,58.7801 120.767,56.7801 121,54.5C 121.5,44.172 121.666,33.8387 121.5,23.5 Z"/></g>
<g><path style="opacity:1" fill="#77380e" d="M 49.5,64.5 C 49.8333,65.1667 50.1667,65.8333 50.5,66.5C 52.614,69.0698 54.9473,71.4032 57.5,73.5C 65.7715,81.2703 73.9382,89.2703 82,97.5C 82.4828,98.448 82.6495,99.448 82.5,100.5C 66.8333,100.5 51.1667,100.5 35.5,100.5C 36.2625,99.7321 37.2625,99.2321 38.5,99C 37.8333,98.6667 37.1667,98.3333 36.5,98C 40.3966,97.1926 41.0632,95.5259 38.5,93C 39.374,91.2733 39.2074,89.4399 38,87.5C 37.6824,89.0609 36.8491,90.2276 35.5,91C 37.497,92.1531 37.8304,93.6531 36.5,95.5C 34.6841,92.9357 32.8508,92.9357 31,95.5C 29.5115,91.0794 31.3448,88.4127 36.5,87.5C 36.1667,86.8333 35.8333,86.1667 35.5,85.5C 39.1435,84.4201 42.8102,83.9201 46.5,84C 44.627,85.0847 42.9603,86.418 41.5,88C 42.1667,89 42.8333,90 43.5,91C 41.5946,91.8261 41.2612,92.9928 42.5,94.5C 43.684,92.9539 44.684,91.2873 45.5,89.5C 48.0278,90.4978 48.0278,91.3311 45.5,92C 47.5,92.6667 49.5,92.6667 51.5,92C 50.1667,91.3333 50.1667,90.6667 51.5,90C 49.9559,89.7104 48.6226,89.0437 47.5,88C 48.6405,87.2588 48.6405,86.4255 47.5,85.5C 51.5635,84.6726 55.5635,83.506 59.5,82C 57.981,80.6487 56.6477,79.1487 55.5,77.5C 54.895,78.5874 55.2283,79.754 56.5,81C 54.2779,81.6946 52.1113,82.5279 50,83.5C 48.013,82.8464 46.6797,81.513 46,79.5C 45.7508,80.624 45.2508,81.624 44.5,82.5C 42.8437,80.9776 41.677,81.311 41,83.5C 39.7012,83.0338 38.2012,83.0338 36.5,83.5C 36.5,82.5 36.5,81.5 36.5,80.5C 37.552,80.6495 38.552,80.4828 39.5,80C 39.1667,79.6667 38.8333,79.3333 38.5,79C 39.5156,78.4806 40.1822,77.6473 40.5,76.5C 39.2392,72.8691 37.2392,72.5357 34.5,75.5C 33.4471,74.5617 32.7804,73.395 32.5,72C 35.1162,70.2024 36.7829,67.7024 37.5,64.5C 37.3284,63.5084 37.6618,62.8417 38.5,62.5C 39.8149,61.5244 41.1482,60.5244 42.5,59.5C 45.1301,60.8037 47.4634,62.4704 49.5,64.5 Z"/></g>
<g><path style="opacity:1" fill="#885729" d="M 111.5,100.5 C 110.432,101.434 109.099,101.768 107.5,101.5C 103.5,101.5 99.5,101.5 95.5,101.5C 93.5,101.5 91.5,101.5 89.5,101.5C 83.8333,101.5 78.1667,101.5 72.5,101.5C 56.1667,101.5 39.8333,101.5 23.5,101.5C 22.8333,101.5 22.1667,101.5 21.5,101.5C 19.2646,101.795 17.2646,101.461 15.5,100.5C 16.1667,100.5 16.8333,100.5 17.5,100.5C 23.5,100.5 29.5,100.5 35.5,100.5C 51.1667,100.5 66.8333,100.5 82.5,100.5C 84.604,100.799 86.604,100.466 88.5,99.5C 86.4284,95.4548 84.2617,91.4548 82,87.5C 78.2345,85.7268 76.4012,82.7268 76.5,78.5C 77.4584,78.9528 78.2917,79.6195 79,80.5C 79.5885,78.1367 81.0885,77.1367 83.5,77.5C 83.2148,79.288 83.5481,80.9547 84.5,82.5C 88.1542,81.1004 88.4876,79.1004 85.5,76.5C 86.0402,75.2519 86.7069,74.0852 87.5,73C 86.1667,72.6667 84.8333,72.3333 83.5,72C 84.646,71.3551 85.646,70.5217 86.5,69.5C 87.7112,70.3898 89.0445,70.3898 90.5,69.5C 91.1667,69.8333 91.8333,70.1667 92.5,70.5C 90.668,72.2982 90.3346,74.1315 91.5,76C 90.376,76.2492 89.376,76.7492 88.5,77.5C 90.1657,78.9472 91.9991,80.2806 94,81.5C 95.7618,81.0556 95.5951,80.5556 93.5,80C 98.2627,79.3782 99.2627,79.5449 96.5,80.5C 96.5,82.1667 96.5,83.8333 96.5,85.5C 95.0222,85.238 93.6888,85.5713 92.5,86.5C 93,86.8333 93.5,87.1667 94,87.5C 95.6667,86.8333 97.3333,86.1667 99,85.5C 101.901,86.742 104.734,88.0753 107.5,89.5C 107.949,92.0436 107.949,94.7102 107.5,97.5C 105.167,97.5 102.833,97.5 100.5,97.5C 100.5,98.5 100.5,99.5 100.5,100.5C 104.167,100.5 107.833,100.5 111.5,100.5 Z"/></g>
<g><path style="opacity:1" fill="#b2b6b9" d="M 122.5,94.5 C 122.5,95.8333 122.5,97.1667 122.5,98.5C 120.075,102.045 116.742,104.045 112.5,104.5C 112.67,105.822 112.337,106.989 111.5,108C 109.5,108.667 107.5,108.667 105.5,108C 108.028,106.983 108.028,105.816 105.5,104.5C 106.193,103.482 106.859,102.482 107.5,101.5C 109.099,101.768 110.432,101.434 111.5,100.5C 113.167,100.5 114.833,100.5 116.5,100.5C 115.57,95.505 117.07,91.1717 121,87.5C 121.186,90.0356 121.686,92.369 122.5,94.5 Z"/></g>
<g><path style="opacity:1" fill="#a7aeb1" d="M 21.5,101.5 C 22.1667,101.5 22.8333,101.5 23.5,101.5C 23.9867,102.473 24.4867,103.473 25,104.5C 26.938,102.022 29.1047,101.855 31.5,104C 30.4642,105.617 29.2975,105.784 28,104.5C 27.6667,105.5 27.3333,106.5 27,107.5C 26.3333,106.167 25.6667,106.167 25,107.5C 25.4993,108.894 26.3326,110.228 27.5,111.5C 24.6613,111.031 21.9946,111.031 19.5,111.5C 19.0825,110.778 18.4158,110.278 17.5,110C 18.9774,107.852 20.9774,106.518 23.5,106C 22.6667,105.167 21.8333,104.333 21,103.5C 19.2866,104.878 17.9533,106.545 17,108.5C 15.6986,106.635 15.3653,104.635 16,102.5C 17.9959,103.341 19.8292,103.008 21.5,101.5 Z"/></g>
<g><path style="opacity:1" fill="#8a8f91" d="M 122.5,98.5 C 122.665,101.518 122.498,104.518 122,107.5C 121.623,108.942 120.79,109.942 119.5,110.5C 118.848,109.275 117.681,108.608 116,108.5C 114.833,108.667 113.667,108.833 112.5,109C 113.167,109.333 113.833,109.667 114.5,110C 112.693,112.276 111.193,112.443 110,110.5C 106.76,112.036 103.76,111.703 101,109.5C 100.722,110.416 100.222,111.082 99.5,111.5C 99.5,110.5 99.5,109.5 99.5,108.5C 105.695,109.469 105.862,108.803 100,106.5C 97.4798,106.598 94.9798,106.598 92.5,106.5C 93.9814,105.52 95.3147,104.353 96.5,103C 95.944,102.617 95.6107,102.117 95.5,101.5C 99.5,101.5 103.5,101.5 107.5,101.5C 106.859,102.482 106.193,103.482 105.5,104.5C 108.028,105.816 108.028,106.983 105.5,108C 107.5,108.667 109.5,108.667 111.5,108C 112.337,106.989 112.67,105.822 112.5,104.5C 116.742,104.045 120.075,102.045 122.5,98.5 Z"/></g>
<g><path style="opacity:1" fill="#a0a6a9" d="M 89.5,101.5 C 91.5,101.5 93.5,101.5 95.5,101.5C 95.6107,102.117 95.944,102.617 96.5,103C 95.3147,104.353 93.9814,105.52 92.5,106.5C 94.9798,106.598 97.4798,106.598 100,106.5C 105.862,108.803 105.695,109.469 99.5,108.5C 99.5,109.5 99.5,110.5 99.5,111.5C 97.8333,111.5 96.1667,111.5 94.5,111.5C 94.6495,110.448 94.4828,109.448 94,108.5C 93.5899,109.901 93.0899,111.234 92.5,112.5C 89.9214,112.606 87.588,111.939 85.5,110.5C 85.2052,109.229 84.8718,107.562 84.5,105.5C 87.3667,105.631 89.0334,104.297 89.5,101.5 Z"/></g>
<g><path style="opacity:1" fill="#94999d" d="M 15.5,88.5 C 15.5,88.8333 15.5,89.1667 15.5,89.5C 15.5,93.1667 15.5,96.8333 15.5,100.5C 17.2646,101.461 19.2646,101.795 21.5,101.5C 19.8292,103.008 17.9959,103.341 16,102.5C 15.3653,104.635 15.6986,106.635 17,108.5C 17.9533,106.545 19.2866,104.878 21,103.5C 21.8333,104.333 22.6667,105.167 23.5,106C 20.9774,106.518 18.9774,107.852 17.5,110C 18.4158,110.278 19.0825,110.778 19.5,111.5C 18.8333,111.5 18.1667,111.5 17.5,111.5C 14.0295,112.125 11.1962,111.125 9,108.5C 8.66667,108.833 8.33333,109.167 8,109.5C 7.52907,107.754 6.86241,106.087 6,104.5C 5.51722,105.448 5.35055,106.448 5.5,107.5C 4.51836,104.038 4.18503,100.371 4.5,96.5C 6.12936,94.9397 7.29602,95.273 8,97.5C 8.20374,92.2194 9.03707,91.7194 10.5,96C 9.07734,97.412 9.244,98.5787 11,99.5C 11.8031,95.637 13.3031,91.9703 15.5,88.5 Z"/></g>
<g><path style="opacity:1" fill="#979da0" d="M 23.5,101.5 C 39.8333,101.5 56.1667,101.5 72.5,101.5C 69.383,102.096 66.883,103.763 65,106.5C 63.1259,106.81 61.2926,106.31 59.5,105C 61.6079,104.64 63.6079,103.973 65.5,103C 62.1667,102.333 58.8333,102.333 55.5,103C 56.1667,103.333 56.8333,103.667 57.5,104C 56.3349,105.084 55.0016,105.917 53.5,106.5C 51.6318,106.054 49.7985,105.721 48,105.5C 46.513,106.253 46.3463,107.086 47.5,108C 46.2695,109.405 44.9361,110.571 43.5,111.5C 38.3765,111.154 33.0431,111.154 27.5,111.5C 26.3326,110.228 25.4993,108.894 25,107.5C 25.6667,106.167 26.3333,106.167 27,107.5C 27.3333,106.5 27.6667,105.5 28,104.5C 29.2975,105.784 30.4642,105.617 31.5,104C 29.1047,101.855 26.938,102.022 25,104.5C 24.4867,103.473 23.9867,102.473 23.5,101.5 Z"/></g>
<g><path style="opacity:1" fill="#abb3b6" d="M 72.5,101.5 C 78.1667,101.5 83.8333,101.5 89.5,101.5C 89.0334,104.297 87.3667,105.631 84.5,105.5C 84.8718,107.562 85.2052,109.229 85.5,110.5C 84.2275,111.434 82.7275,112.101 81,112.5C 68.5377,111.529 56.0377,111.196 43.5,111.5C 44.9361,110.571 46.2695,109.405 47.5,108C 46.3463,107.086 46.513,106.253 48,105.5C 49.7985,105.721 51.6318,106.054 53.5,106.5C 55.0016,105.917 56.3349,105.084 57.5,104C 56.8333,103.667 56.1667,103.333 55.5,103C 58.8333,102.333 62.1667,102.333 65.5,103C 63.6079,103.973 61.6079,104.64 59.5,105C 61.2926,106.31 63.1259,106.81 65,106.5C 66.883,103.763 69.383,102.096 72.5,101.5 Z"/></g>
<g><path style="opacity:1" fill="#596163" d="M 17.5,111.5 C 19.631,112.314 21.9644,112.814 24.5,113C 23.354,113.645 22.354,114.478 21.5,115.5C 20.8333,114.833 20.1667,114.167 19.5,113.5C 18.0953,114.994 16.4287,115.994 14.5,116.5C 13.0413,116.567 11.7079,116.234 10.5,115.5C 7.86209,113.582 6.19542,110.915 5.5,107.5C 5.35055,106.448 5.51722,105.448 6,104.5C 6.86241,106.087 7.52907,107.754 8,109.5C 8.33333,109.167 8.66667,108.833 9,108.5C 11.1962,111.125 14.0295,112.125 17.5,111.5 Z"/></g>
<g><path style="opacity:1" fill="#768083" d="M 27.5,111.5 C 33.0431,111.154 38.3765,111.154 43.5,111.5C 56.0377,111.196 68.5377,111.529 81,112.5C 82.7275,112.101 84.2275,111.434 85.5,110.5C 87.588,111.939 89.9214,112.606 92.5,112.5C 93.8333,113.167 95.1667,113.833 96.5,114.5C 95.2502,114.577 94.4169,115.244 94,116.5C 93.6924,115.692 93.1924,115.025 92.5,114.5C 90.099,117.413 88.7657,117.079 88.5,113.5C 85.8431,113.162 83.5098,113.829 81.5,115.5C 77.024,112.647 72.8573,112.98 69,116.5C 68.3333,115.833 67.6667,115.167 67,114.5C 60.3085,114.746 53.3085,115.08 46,115.5C 44.6667,112.833 43.3333,112.833 42,115.5C 40.2215,114.521 38.5548,114.854 37,116.5C 36.6924,115.692 36.1924,115.025 35.5,114.5C 32.4165,117.092 29.2499,117.092 26,114.5C 23.9172,115.231 22.0839,116.231 20.5,117.5C 20.1667,117.5 19.8333,117.5 19.5,117.5C 17.5853,117.784 15.9187,117.451 14.5,116.5C 16.4287,115.994 18.0953,114.994 19.5,113.5C 20.1667,114.167 20.8333,114.833 21.5,115.5C 22.354,114.478 23.354,113.645 24.5,113C 21.9644,112.814 19.631,112.314 17.5,111.5C 18.1667,111.5 18.8333,111.5 19.5,111.5C 21.9946,111.031 24.6613,111.031 27.5,111.5 Z"/></g>
<g><path style="opacity:1" fill="#9aa2a3" d="M 96.5,114.5 C 97.7383,114.81 97.7383,115.31 96.5,116C 97.7932,116.49 99.1266,116.657 100.5,116.5C 99.0028,117.306 97.3361,117.972 95.5,118.5C 90.8999,117.557 86.2332,117.223 81.5,117.5C 68.1667,117.5 54.8333,117.5 41.5,117.5C 36.0371,117.201 31.0371,117.868 26.5,119.5C 25.5091,121.323 24.1757,122.823 22.5,124C 23.3366,125.011 23.67,126.178 23.5,127.5C 22.5,127.5 21.5,127.5 20.5,127.5C 21.5075,124.156 22.5075,120.823 23.5,117.5C 22.5,117.5 21.5,117.5 20.5,117.5C 22.0839,116.231 23.9172,115.231 26,114.5C 29.2499,117.092 32.4165,117.092 35.5,114.5C 36.1924,115.025 36.6924,115.692 37,116.5C 38.5548,114.854 40.2215,114.521 42,115.5C 43.3333,112.833 44.6667,112.833 46,115.5C 53.3085,115.08 60.3085,114.746 67,114.5C 67.6667,115.167 68.3333,115.833 69,116.5C 72.8573,112.98 77.024,112.647 81.5,115.5C 83.5098,113.829 85.8431,113.162 88.5,113.5C 88.7657,117.079 90.099,117.413 92.5,114.5C 93.1924,115.025 93.6924,115.692 94,116.5C 94.4169,115.244 95.2502,114.577 96.5,114.5 Z"/></g>
<g><path style="opacity:1" fill="#636c6e" d="M 99.5,111.5 C 100.222,111.082 100.722,110.416 101,109.5C 103.76,111.703 106.76,112.036 110,110.5C 111.193,112.443 112.693,112.276 114.5,110C 113.833,109.667 113.167,109.333 112.5,109C 113.667,108.833 114.833,108.667 116,108.5C 117.681,108.608 118.848,109.275 119.5,110.5C 118.89,112.434 117.89,114.101 116.5,115.5C 113.555,116.468 110.555,116.634 107.5,116C 108.604,114.869 108.271,114.035 106.5,113.5C 104.402,113.957 102.736,114.957 101.5,116.5C 101.167,116.5 100.833,116.5 100.5,116.5C 99.1266,116.657 97.7932,116.49 96.5,116C 97.7383,115.31 97.7383,114.81 96.5,114.5C 95.1667,113.833 93.8333,113.167 92.5,112.5C 93.0899,111.234 93.5899,109.901 94,108.5C 94.4828,109.448 94.6495,110.448 94.5,111.5C 96.1667,111.5 97.8333,111.5 99.5,111.5 Z"/></g>
<g><path style="opacity:1" fill="#cacacb" d="M 19.5,117.5 C 19.8333,117.5 20.1667,117.5 20.5,117.5C 21.5,117.5 22.5,117.5 23.5,117.5C 22.5075,120.823 21.5075,124.156 20.5,127.5C 20.1667,127.5 19.8333,127.5 19.5,127.5C 19.2133,124.124 17.88,121.291 15.5,119C 17.366,120.008 18.6993,119.508 19.5,117.5 Z"/></g>
<g><path style="opacity:1" fill="#e4e5e7" d="M 41.5,117.5 C 54.8333,117.5 68.1667,117.5 81.5,117.5C 81.369,118.239 81.5357,118.906 82,119.5C 84.4009,118.398 86.9009,118.231 89.5,119C 88.2842,120.74 86.6175,121.74 84.5,122C 85.4061,123.699 85.7394,125.533 85.5,127.5C 72.8333,127.5 60.1667,127.5 47.5,127.5C 47.1882,124.727 46.0216,122.393 44,120.5C 42.8525,121.458 41.8525,121.125 41,119.5C 39.6667,120.167 38.6667,121.167 38,122.5C 36.8289,121.107 35.3289,120.273 33.5,120C 36.3763,119.744 39.043,118.911 41.5,117.5 Z"/></g>
<g><path style="opacity:1" fill="#a1a2a2" d="M 10.5,115.5 C 11.7079,116.234 13.0413,116.567 14.5,116.5C 15.9187,117.451 17.5853,117.784 19.5,117.5C 18.6993,119.508 17.366,120.008 15.5,119C 17.88,121.291 19.2133,124.124 19.5,127.5C 18.5,127.5 17.5,127.5 16.5,127.5C 16.0986,126.009 15.932,124.342 16,122.5C 15.1475,120.875 14.1475,120.542 13,121.5C 12.4153,119.339 11.5819,117.339 10.5,115.5 Z"/></g>
<g><path style="opacity:1" fill="#cbccce" d="M 41.5,117.5 C 39.043,118.911 36.3763,119.744 33.5,120C 35.3289,120.273 36.8289,121.107 38,122.5C 38.6667,121.167 39.6667,120.167 41,119.5C 41.8525,121.125 42.8525,121.458 44,120.5C 46.0216,122.393 47.1882,124.727 47.5,127.5C 39.5,127.5 31.5,127.5 23.5,127.5C 23.67,126.178 23.3366,125.011 22.5,124C 24.1757,122.823 25.5091,121.323 26.5,119.5C 31.0371,117.868 36.0371,117.201 41.5,117.5 Z"/></g>
<g><path style="opacity:1" fill="#acadad" d="M 116.5,115.5 C 114.577,118.603 112.41,121.603 110,124.5C 109.517,125.448 109.351,126.448 109.5,127.5C 106.833,127.5 104.167,127.5 101.5,127.5C 102.871,125.741 103.871,123.741 104.5,121.5C 105.376,120.749 106.376,120.249 107.5,120C 105.114,119.716 104.448,118.716 105.5,117C 104.207,116.51 102.873,116.343 101.5,116.5C 102.736,114.957 104.402,113.957 106.5,113.5C 108.271,114.035 108.604,114.869 107.5,116C 110.555,116.634 113.555,116.468 116.5,115.5 Z"/></g>
<g><path style="opacity:1" fill="#d3d4d5" d="M 100.5,116.5 C 100.833,116.5 101.167,116.5 101.5,116.5C 102.873,116.343 104.207,116.51 105.5,117C 104.448,118.716 105.114,119.716 107.5,120C 106.376,120.249 105.376,120.749 104.5,121.5C 103.871,123.741 102.871,125.741 101.5,127.5C 96.1667,127.5 90.8333,127.5 85.5,127.5C 85.7394,125.533 85.4061,123.699 84.5,122C 86.6175,121.74 88.2842,120.74 89.5,119C 86.9009,118.231 84.4009,118.398 82,119.5C 81.5357,118.906 81.369,118.239 81.5,117.5C 86.2332,117.223 90.8999,117.557 95.5,118.5C 97.3361,117.972 99.0028,117.306 100.5,116.5 Z"/></g>
</svg>
